# xmcd
#
# Track frame offsets:
#	150
#	13307
#	28973
#	42308
#	56961
#	73722
#	86461
#	96354
#	109920
#	121940
#	138010
#	151174
#	168770
#	185798
#	197628
#	215726
#	229233
#	252330
#	264050
#	275837
#	293004
#	309499
#	324284
#	337617
#
# Disc length: 4677 seconds
# Revision: 0
# Processed by: cddbd v1.5.2PL0 Copyright (c) Steve Scherf et al.
# Submitted via: dBpowerAMP V12.0
#
DISCID=5d124318
DTITLE=25 geant country - Vol 2
DYEAR=1900
DGENRE=
TTITLE0=Les nouveaux cowboys
TTITLE1=Jambalaya medley
TTITLE2=La route on sera separe
TTITLE3=Un jour on sera separe
TTITLE4=Derange moe pas
TTITLE5=Sweet suzanne
TTITLE6=Merci mes amis
TTITLE7=Anita
TTITLE8=Echo et tyroliennes
TTITLE9=Un royaume d'amour
TTITLE10=Destination country
TTITLE11=Essaye pas de comprendre
TTITLE12=Le diable parmi nous
TTITLE13=Ce que je suis
TTITLE14=Un coeur brise
TTITLE15=J'aurais le gout
TTITLE16=Laisse toi aller
TTITLE17=Pour t'oublier
TTITLE18=Quand j'etais petit gars
TTITLE19=Un si beau souvenir
TTITLE20=Milles apres milles
TTITLE21=Le routier
TTITLE22=Hey badoo
TTITLE23=Ce qu'elle est jolie
EXTD=
EXTT0=
EXTT1=
EXTT2=
EXTT3=
EXTT4=
EXTT5=
EXTT6=
EXTT7=
EXTT8=
EXTT9=
EXTT10=
EXTT11=
EXTT12=
EXTT13=
EXTT14=
EXTT15=
EXTT16=
EXTT17=
EXTT18=
EXTT19=
EXTT20=
EXTT21=
EXTT22=
EXTT23=
PLAYORDER=
